<?xml version="1.0" encoding="UTF-8" standalone="no"?>
<svg
   version="1.1"
   width="200px"
   height="auto"
   id="svg25"
   viewBox="0 0 733.96283 129.80901"
   sodipodi:docname="bb724a8fe658d84b4d1d8a2675dcc776.cdr"
   xmlns:inkscape="http://www.inkscape.org/namespaces/inkscape"
   xmlns:sodipodi="http://sodipodi.sourceforge.net/DTD/sodipodi-0.dtd"
   xmlns="http://www.w3.org/2000/svg"
   xmlns:svg="http://www.w3.org/2000/svg">
  <defs
     id="defs29" />
  <sodipodi:namedview
     id="namedview27"
     pagecolor="#ffffff"
     bordercolor="#666666"
     borderopacity="1.0"
     inkscape:pageshadow="2"
     inkscape:pageopacity="0.0"
     inkscape:pagecheckerboard="0" />
  <g
     id="Layer1000"
     transform="translate(-29.1436,-241.0954)">
    <path
       d="m 80.987,241.0954 c 24.2058,0 44.5456,16.3556 50.284,38.4776 -35.1016,0.6329 -64.5198,-6.8119 -88.7543,-21.6383 9.4967,-10.3427 23.2153,-16.8393 38.4703,-16.8393 z m 50.96,41.4697 c 0.2091,1.071 0.3831,2.1525 0.5236,3.2451 -36.1288,0.5163 -69.0874,-4.1701 -99.4027,-13.2007 1.2442,-2.9427 2.7582,-5.7448 4.5133,-8.3802 20.9798,11.9541 52.4308,18.066 94.3658,18.3358 z m 0.8236,6.2906 c 0.0591,0.8692 0.0966,1.7415 0.1118,2.6226 L 29.1436,289.8845 c 0.1812,-3.8333 0.7885,-7.5557 1.779,-11.1232 30.3169,6.7959 63.989,10.4193 101.848,10.0944 z m 0.0807,5.4344 c -0.028,0.719 -0.0719,1.4342 -0.1293,2.1453 -41.8751,-0.4087 -74.6542,3.0783 -101.9327,8.922 -0.8691,-3.2579 -1.4222,-6.6402 -1.621,-10.1184 z m -0.3975,4.6601 c -0.1724,1.3105 -0.3927,2.609 -0.664,3.886 -40.1257,-1.5188 -69.3196,6.068 -94.6532,16.8736 -1.4022,-2.1789 -2.6393,-4.4718 -3.7,-6.8574 29.0184,-9.618 61.7041,-14.65 99.0172,-13.9022 z m -1.4063,6.9108 c -6.0241,21.7045 -26.1547,37.6635 -50.0605,37.6635 -14.4281,0 -27.4812,-5.8158 -36.8901,-15.196 22.6806,-15.5655 51.276,-23.5465 86.9506,-22.4675 z"
       style="fill:#e30016;fill-rule:evenodd"
       id="path2" />
    <path
       d="m 139.8993,370.9044 23.8299,-88.9355 c 15.876,-36.025 64.6507,-44.9965 80.703,-28.4246 31.9211,23.6208 0.4222,105.2264 -70.923,83.15 l 9.0027,-26.4078 c 16.0803,21.3494 54.5051,-5.8549 51.0397,-22.7085 3.7887,-21.0836 -27.2138,-32.724 -49.8394,-0.3983 l -18.6054,70.5208 z"
       style="fill:#00315c;fill-rule:evenodd"
       id="path4" />
    <path
       d="m 304.5201,340.8253 6.3849,-22.9855 h -23.2537 c -6.1645,-3.6633 -9.1447,-8.4655 -9.9476,-14.0467 h 36.2668 l 6.0449,-22.5585 h -35.6738 c 6.2165,-10.5278 19.5824,-15.267 40.0993,-14.2183 l 5.8741,-22.4747 c -86.8812,-7.8677 -106.7581,102.4922 -25.7949,96.2837 z"
       style="fill:#00315c;fill-rule:evenodd"
       id="path6" />
    <path
       d="m 310.6432,340.5635 15.445,-59.6856 h 23.0605 l -9.8127,36.6219 h 10.5885 c 34.1135,-5.6626 41.5255,-49.2831 15.9541,-50.758 h -36.3881 l 6.0425,-22.5513 34.7959,-0.2235 c 59.8628,8.3993 33.9148,96.3818 -26.9633,96.3347 z"
       style="fill:#00315c;fill-rule:evenodd"
       id="path8" />
    <path
       d="m 389.3613,340.1485 16.445,-58.949 h 31.625 c 5.9499,-1.755 9.381,-13.484 3.6729,-13.7067 h -33.277 l 7.8461,-23.2313 h 30.866 c 25.743,2.763 28.9889,34.6833 1.518,52.877 l 13.409,43.263 h -24.035 l -10.373,-36.179 h -4.048 l -9.6084,35.8606 z"
       style="fill:#00315c;fill-rule:evenodd"
       id="path10" />
    <path
       d="m 518.6164,244.0093 c 25.7198,0 41.3428,21.5641 34.8821,48.1801 -6.4471,26.6161 -32.5428,48.1802 -58.2491,48.1802 -25.7198,0 -41.3427,-21.5641 -34.882,-48.1802 6.4471,-26.616 32.5428,-48.1801 58.249,-48.1801 z m -5.2092,21.4818 c 14.2526,0 22.9096,11.9493 19.3293,26.6983 -3.5723,14.7491 -18.0332,26.6983 -32.2778,26.6983 -14.2526,0 -22.9097,-11.9492 -19.3294,-26.6983 3.5723,-14.749 18.0333,-26.6983 32.2779,-26.6983 z"
       style="fill:#00315c;fill-rule:evenodd"
       id="path12" />
    <path
       d="m 568.1358,244.1482 -13.583,52.5505 c -3.3768,24.3998 6.6434,37.8718 25.8299,43.8664 h 15.5871 l 6.4575,-22.7125 -17.8138,-0.8907 c -8.1662,-3.7104 -9.8,-11.5047 -8.4615,-21.1538 l 14.4737,-51.8826 z"
       style="fill:#00315c;fill-rule:evenodd"
       id="path14" />
    <path
       d="m 615.5649,244.1482 -13.583,52.5505 c -3.3768,24.3998 6.6435,37.8718 25.83,43.8664 h 15.587 l 6.4575,-22.7125 -17.8138,-0.8907 c -8.1662,-3.7104 -9.7999,-11.5047 -8.4615,-21.1538 l 14.4737,-51.8826 z"
       style="fill:#00315c;fill-rule:evenodd"
       id="path16" />
    <path
       d="m 708.8644,244.0093 c 25.7199,0 41.3428,21.5641 34.8821,48.1801 -6.4471,26.6161 -32.5428,48.1802 -58.249,48.1802 -25.7198,0 -41.3428,-21.5641 -34.8821,-48.1802 6.4471,-26.616 32.5428,-48.1801 58.249,-48.1801 z m -5.2092,21.4818 c 14.2526,0 22.9097,11.9493 19.3294,26.6983 -3.5724,14.7491 -18.0333,26.6983 -32.2779,26.6983 -14.2526,0 -22.9097,-11.9492 -19.3294,-26.6983 3.5724,-14.749 18.0333,-26.6983 32.2779,-26.6983 z"
       style="fill:#00315c;fill-rule:evenodd"
       id="path18" />
    <path
       d="m 753.8633,244.7787 a 8.9931,8.9931 0 0 1 8.9931,8.993 8.9931,8.9931 0 1 1 -8.9931,-8.993 z"
       style="fill:none;stroke:#00315c;stroke-width:0.5;stroke-linecap:butt;stroke-linejoin:miter;stroke-dasharray:none"
       id="path20" />
    <path
       d="m 748.4426,260.5742 v -13.6026 h 5.7829 c 1.4539,0 2.5084,0.1233 3.1672,0.3674 0.6587,0.2438 1.1877,0.6778 1.5837,1.3017 0.3957,0.627 0.5921,1.3396 0.5921,2.1441 0,1.0196 -0.3007,1.8655 -0.8994,2.5305 -0.5987,0.6619 -1.4981,1.0831 -2.6921,1.254 0.5956,0.3484 1.0863,0.7285 1.4726,1.1435 0.3864,0.4147 0.906,1.1495 1.5616,2.2074 l 1.6626,2.654 h -3.2843 l -1.9856,-2.9613 c -0.7064,-1.0576 -1.1877,-1.7229 -1.4474,-1.9984 -0.2596,-0.2756 -0.5352,-0.4624 -0.8266,-0.567 -0.2914,-0.1012 -0.7506,-0.1519 -1.3841,-0.1519 h -0.5542 v 5.6786 z m 2.749,-7.8511 h 2.0302 c 1.3175,0 2.141,-0.0538 2.4701,-0.1647 0.3262,-0.1108 0.5828,-0.3041 0.7696,-0.5765 0.1839,-0.2725 0.2789,-0.6112 0.2789,-1.0199 0,-0.4593 -0.1236,-0.8266 -0.3674,-1.1084 -0.244,-0.2818 -0.589,-0.4592 -1.0357,-0.5352 -0.2217,-0.0286 -0.8898,-0.0445 -2.0047,-0.0445 h -2.141 z"
       style="fill:#00315c;fill-rule:evenodd"
       id="path22" />
  </g>
</svg>
