<?xml version="1.0" encoding="UTF-8" standalone="no"?>
<!-- Created with Inkscape (http://www.inkscape.org/) -->

<svg
   version="1.1"
   id="svg2"
   xml:space="preserve"
   width="167.50748"
   height="77.218796"
   viewBox="0 0 167.50748 77.218797"
   sodipodi:docname="0a6f2ad294210102c6fe9c1e35f40702.eps"
   xmlns:inkscape="http://www.inkscape.org/namespaces/inkscape"
   xmlns:sodipodi="http://sodipodi.sourceforge.net/DTD/sodipodi-0.dtd"
   xmlns="http://www.w3.org/2000/svg"
   xmlns:svg="http://www.w3.org/2000/svg"><defs
     id="defs6" /><sodipodi:namedview
     id="namedview4"
     pagecolor="#ffffff"
     bordercolor="#666666"
     borderopacity="1.0"
     inkscape:pageshadow="2"
     inkscape:pageopacity="0.0"
     inkscape:pagecheckerboard="0" /><g
     id="g8"
     inkscape:groupmode="layer"
     inkscape:label="ink_ext_XXXXXX"
     transform="matrix(1.3333333,0,0,-1.3333333,-10.733853,133.0964)"><g
       id="g10"
       transform="scale(0.1)"><path
         d="m 80.5039,629.902 46.9611,110.129 c 20.918,-14.152 39.785,-24.609 56.191,-31.172 16.614,-6.359 31.992,-9.64 46.348,-9.64 10.051,0 17.844,1.64 23.586,5.332 5.742,3.691 8.816,8.82 8.816,14.972 0,10.868 -14.558,19.278 -43.476,25.02 -9.227,2.051 -16.407,3.484 -21.739,4.512 -30.554,7.175 -53.933,19.89 -69.929,38.144 -16.203,18.25 -24.407,41.016 -24.407,68.289 0,42.246 15.793,76.496 47.168,103.157 31.582,26.453 72.805,39.578 123.665,39.578 23.582,0 46.55,-2.871 69.316,-8.817 22.762,-5.949 45.527,-14.765 68.699,-26.867 L 366.996,859.797 c -14.148,10.047 -28.301,17.637 -42.449,22.969 -14.356,5.125 -28.098,7.793 -41.633,7.793 -10.254,0 -18.047,-1.641 -23.582,-4.922 -5.742,-3.282 -8.41,-8 -8.41,-13.742 0,-11.278 20.305,-20.918 61.113,-29.325 6.563,-1.437 11.485,-2.461 14.973,-3.281 28.301,-6.152 50.449,-18.457 66.648,-37.324 16.203,-18.867 24.199,-41.426 24.199,-68.293 0,-43.477 -16.406,-78.953 -49.011,-106.434 -32.61,-27.687 -75.266,-41.425 -127.559,-41.425 -26.66,0 -53.527,3.691 -80.39,11.074 -26.661,7.383 -53.528,18.25 -80.3911,33.015"
         style="fill:#eb1d27;fill-opacity:1;fill-rule:nonzero;stroke:none"
         id="path12" /><path
         d="M 467.074,596.27 V 989.406 H 740.445 V 882.766 H 611.039 V 845.031 H 728.344 V 744.336 H 611.039 V 702.91 H 743.727 V 596.27 H 467.074"
         style="fill:#eb1d27;fill-opacity:1;fill-rule:nonzero;stroke:none"
         id="path14" /><path
         d="m 1041.7,795.195 c -0.61,-12.918 -3.69,-31.375 -9.22,-55.574 -1.03,-3.898 -1.65,-6.973 -2.26,-9.23 L 999.457,596.27 H 871.285 L 751.93,989.406 h 147.246 l 32.195,-173.293 c 2.871,-15.175 4.922,-29.121 6.359,-41.629 1.641,-12.714 2.461,-24.406 2.872,-35.683 h 3.281 c 0.41,15.586 3.281,36.094 8.816,61.523 0.207,2.461 0.617,4.305 1.028,5.742 l 38.757,183.34 h 103.766 l 38.76,-183.75 c 0.21,-1.027 0.62,-2.668 1.03,-5.332 5.54,-25.636 8.41,-45.937 8.61,-61.523 h 3.49 c 0.41,11.277 1.23,22.969 2.67,35.683 1.64,12.508 3.69,26.454 6.56,41.629 l 31.99,173.293 h 147.45 L 1217.46,596.27 h -128.38 l -30.56,134.121 c -0.61,2.257 -1.44,5.539 -2.26,9.64 -5.74,23.992 -8.61,42.246 -9.22,55.164 h -5.34"
         style="fill:#eb1d27;fill-opacity:1;fill-rule:nonzero;stroke:none"
         id="path16" /><path
         d="m 105.113,423.184 v 149.707 h 93.926 V 532.492 H 154.742 V 517.93 h 40.196 v -38.348 h -40.196 v -15.793 h 45.528 v -40.605 h -95.157"
         style="fill:#eb1d27;fill-opacity:1;fill-rule:nonzero;stroke:none"
         id="path18" /><path
         d="m 219.137,491.68 v 81.211 h 50.449 V 491.27 c 0,-9.434 1.023,-15.997 3.281,-19.481 2.051,-3.691 5.742,-5.539 10.664,-5.539 5.125,0 8.817,1.848 10.867,5.539 2.258,3.691 3.282,10.254 3.282,19.481 v 81.621 h 50.449 V 491.68 c 0,-10.664 -0.613,-19.481 -1.844,-26.25 -1.437,-6.973 -3.488,-12.715 -6.359,-17.227 -5.535,-9.433 -13.328,-16.609 -22.969,-21.531 -9.844,-5.129 -20.918,-7.59 -33.426,-7.59 -12.511,0 -23.586,2.461 -33.222,7.59 -9.844,4.922 -17.434,12.098 -23.176,21.531 -2.664,4.512 -4.715,10.254 -6.153,17.024 -1.23,6.765 -1.843,15.586 -1.843,26.453"
         style="fill:#eb1d27;fill-opacity:1;fill-rule:nonzero;stroke:none"
         id="path20" /><path
         d="m 423.805,534.336 v -29.121 h 7.996 c 4.719,0 8.41,1.23 11.074,3.691 2.461,2.461 3.898,5.949 3.898,10.664 0,4.719 -1.437,8.41 -3.898,11.075 -2.664,2.46 -6.355,3.691 -11.074,3.691 z M 374.379,423.184 v 149.707 h 63.574 c 18.254,0 32.402,-4.305 42.043,-12.918 9.844,-8.614 14.766,-21.125 14.766,-37.532 0,-10.664 -2.461,-19.277 -7.383,-26.25 -4.922,-6.765 -11.484,-10.867 -19.895,-12.097 l 37.532,-60.91 h -56.602 l -24.609,49.425 v -49.425 h -49.426"
         style="fill:#eb1d27;fill-opacity:1;fill-rule:nonzero;stroke:none"
         id="path22" /><path
         d="m 585.199,469.531 c 6.973,0 12.715,2.668 17.024,7.793 4.304,5.129 6.562,11.895 6.562,20.508 0,8.613 -2.258,15.383 -6.562,20.715 -4.309,5.125 -10.051,7.793 -17.024,7.793 -7.176,0 -12.918,-2.668 -17.226,-8 -4.305,-5.125 -6.563,-12.098 -6.563,-20.508 0,-8.613 2.258,-15.379 6.563,-20.508 4.308,-5.125 10.05,-7.793 17.226,-7.793 z m 75.059,28.301 c 0,-11.074 -1.844,-21.328 -5.535,-30.762 -3.692,-9.433 -9.024,-17.84 -15.996,-25.222 -6.973,-7.383 -15.176,-12.922 -24.2,-16.817 -9.23,-3.898 -19.074,-5.949 -29.328,-5.949 -10.457,0 -20.301,2.051 -29.531,5.949 -9.023,3.895 -17.227,9.434 -24.402,17.02 -6.973,7.179 -12.102,15.383 -15.793,24.816 -3.485,9.434 -5.332,19.688 -5.332,30.965 0,11.074 1.847,21.328 5.332,30.762 3.691,9.64 8.82,17.844 15.793,25.226 7.175,7.176 15.175,12.918 24.402,16.817 9.023,3.691 18.867,5.742 29.531,5.742 10.461,0 20.305,-2.051 29.531,-5.742 9.024,-3.899 17.227,-9.641 24.2,-16.817 6.972,-7.382 12.304,-15.793 15.793,-25.226 3.691,-9.637 5.535,-19.891 5.535,-30.762"
         style="fill:#eb1d27;fill-opacity:1;fill-rule:nonzero;stroke:none"
         id="path24" /><path
         d="m 731.422,468.918 c 11.484,0 19.687,2.461 25.019,7.176 5.332,4.511 7.793,11.894 7.793,21.945 0,9.637 -2.461,17.02 -7.382,21.738 -5.129,4.715 -12.715,7.176 -23.176,7.176 h -2.254 z m -50.039,-45.734 v 149.707 h 41.015 c 12.918,0 23.993,-0.614 33.223,-2.254 9.024,-1.438 16.609,-3.899 22.352,-7.18 12.101,-6.766 21.328,-15.789 27.89,-27.07 6.563,-11.278 9.844,-23.992 9.844,-38.348 0,-14.355 -3.281,-27.277 -9.844,-38.351 -6.355,-11.278 -15.789,-20.301 -27.89,-27.071 -5.946,-3.281 -13.535,-5.742 -22.762,-7.176 -9.023,-1.64 -21.328,-2.257 -36.711,-2.257 h -37.117"
         style="fill:#eb1d27;fill-opacity:1;fill-rule:nonzero;stroke:none"
         id="path26" /><path
         d="m 886.254,534.336 v -29.121 h 8 c 4.715,0 8.406,1.23 11.074,3.691 2.461,2.461 3.895,5.949 3.895,10.664 0,4.719 -1.434,8.41 -3.895,11.075 -2.668,2.46 -6.359,3.691 -11.074,3.691 z M 836.832,423.184 v 149.707 h 63.574 c 18.457,0 32.403,-4.305 42.246,-12.918 9.637,-8.614 14.559,-21.125 14.559,-37.532 0,-10.664 -2.461,-19.277 -7.383,-26.25 -4.922,-6.765 -11.484,-10.867 -19.89,-12.097 l 37.527,-60.91 h -56.602 l -24.609,49.425 v -49.425 h -49.422"
         style="fill:#eb1d27;fill-opacity:1;fill-rule:nonzero;stroke:none"
         id="path28" /><path
         d="m 978.336,423.184 v 149.707 h 51.474 V 423.184 h -51.474"
         style="fill:#eb1d27;fill-opacity:1;fill-rule:nonzero;stroke:none"
         id="path30" /><path
         d="m 1090.51,423.184 -53.52,149.707 h 54.55 l 14.97,-54.141 c 2.25,-7.996 3.69,-14.559 4.72,-20.098 1.23,-5.535 1.84,-10.457 2.05,-15.379 h 1.02 c 0.62,5.125 1.64,10.457 2.67,15.997 1.23,5.742 2.87,11.687 4.71,18.25 l 15.59,55.371 H 1191 l -53.52,-149.707 h -46.97"
         style="fill:#eb1d27;fill-opacity:1;fill-rule:nonzero;stroke:none"
         id="path32" /><path
         d="m 1197.15,423.184 v 149.707 h 93.93 v -40.399 h -44.3 V 517.93 h 40.2 v -38.348 h -40.2 v -15.793 h 45.53 v -40.605 h -95.16"
         style="fill:#eb1d27;fill-opacity:1;fill-rule:nonzero;stroke:none"
         id="path34" /></g></g></svg>
