<?xml version="1.0" encoding="UTF-8" standalone="no"?>
<svg
   xmlns:dc="http://purl.org/dc/elements/1.1/"
   xmlns:cc="http://creativecommons.org/ns#"
   xmlns:rdf="http://www.w3.org/1999/02/22-rdf-syntax-ns#"
   xmlns:svg="http://www.w3.org/2000/svg"
   xmlns="http://www.w3.org/2000/svg"
   viewBox="0 0 737.33331 116"
   height="auto"
   width="200px"
   xml:space="preserve"
   id="svg2"
   version="1.1"><metadata
     id="metadata8"><rdf:RDF><cc:Work
         rdf:about=""><dc:format>image/svg+xml</dc:format><dc:type
           rdf:resource="http://purl.org/dc/dcmitype/StillImage" /></cc:Work></rdf:RDF></metadata><defs
     id="defs6" /><g
     transform="matrix(1.3333333,0,0,-1.3333333,0,116)"
     id="g10"><g
       transform="scale(0.1)"
       id="g12"><path
         id="path14"
         style="fill:#00abad;fill-opacity:1;fill-rule:evenodd;stroke:none"
         d="M 17.9219,30.6133 V 196.117 c 94.6291,-29.66 178.3321,-44.523 251.2421,-44.523 100.516,0 150.707,26.465 150.707,79.285 0,19.719 -7.316,36.223 -21.875,49.687 -15.004,14.149 -53.492,33.961 -115.141,59.161 C 172.016,385.109 99.8203,423.688 66.2188,455.695 22.5586,497.801 0.867188,551.082 0.867188,615.348 c 0,82.871 31.773412,145.937 95.160112,189.371 62.6137,42.965 144.3517,64.484 245.0237,64.484 55.539,0 135.918,-10.246 240.941,-30.523 V 679.52 c -78.199,31.054 -150.707,46.628 -217.82,46.628 -94.383,0 -141.586,-25.91 -141.586,-77.55 0,-19.41 9.523,-35.051 28.473,-47.336 15.898,-9.875 59.554,-30.68 130.816,-62.692 102.723,-45.382 171.082,-84.824 205.223,-118.32 40.511,-39.906 60.738,-91.328 60.738,-154.547 0,-90.707 -39.648,-159.89 -119.023,-207.5389 C 464.621,19.4336 381.25,0.0898438 278.996,0.0898438 192.555,0.0898438 105.484,10.2695 17.9219,30.6133 Z M 780.52,17.0781 V 854.563 h 235.12 V 17.0781 Z m 450.87,0 V 854.563 h 603.08 V 703.145 H 1457.93 V 513.992 h 327.85 V 375.883 H 1457.93 V 177.039 h 386.28 V 17.0781 Z m 766.36,0 V 854.563 h 304.89 l 211.82,-535.11 217.11,535.11 h 289.55 V 17.0781 H 2798.19 V 610.02 L 2551.28,8.62891 H 2405.61 L 2163.42,610.02 V 17.0781 Z m 1239.04,0 V 854.563 h 603.07 V 703.145 H 3463.4 V 513.992 h 327.69 V 375.883 H 3463.4 V 177.039 h 386.23 V 17.0781 Z m 767.62,0 V 854.563 h 272.49 l 289.15,-560.622 v 560.622 h 165.64 V 17.0781 H 4466.85 L 4170.07,585.289 V 17.0781 Z m 894.13,13.5352 V 196.117 c 93.91,-29.66 177.59,-44.523 251.22,-44.523 100.6,0 150.88,26.465 150.88,79.285 0,19.719 -7.25,36.223 -21.41,49.687 -14.93,14.149 -53.55,33.961 -115.69,59.161 -110.44,44.918 -182.82,83.652 -216.71,115.968 -43.5,41.793 -65.37,95.164 -65.37,160.36 0,82.386 31.77,145.23 95.18,188.664 62.68,42.965 144.42,64.484 245.18,64.484 56.7,0 130.01,-9.074 220.09,-26.996 l 20.76,-3.527 V 679.52 c -78.19,31.054 -150.95,46.628 -218.35,46.628 -94.07,0 -140.96,-25.91 -140.96,-77.55 0,-19.41 9.36,-35.051 28.4,-47.336 15.1,-9.41 58.98,-30.371 131.42,-62.692 101.94,-45.382 170.24,-84.824 204.6,-118.32 40.42,-39.906 60.65,-91.328 60.65,-154.547 0,-90.707 -39.4,-159.89 -118.38,-207.5389 -64.57,-38.7305 -148.03,-58.0742562 -250.3,-58.0742562 -86.52,0 -173.59,10.1796562 -261.21,30.5234562" /></g></g></svg>