<?xml version="1.0" encoding="UTF-8" standalone="no"?>
<!-- Created with Inkscape (http://www.inkscape.org/) -->

<svg
   version="1.1"
   id="svg2"
   xml:space="preserve"
   width="200"
   height="auto"
   viewBox="0 0 257.0083 257.00827"
   sodipodi:docname="08902d3ce3553c8e8ad8aaede700eb94.eps"
   xmlns:inkscape="http://www.inkscape.org/namespaces/inkscape"
   xmlns:sodipodi="http://sodipodi.sourceforge.net/DTD/sodipodi-0.dtd"
   xmlns="http://www.w3.org/2000/svg"
   xmlns:svg="http://www.w3.org/2000/svg"><defs
     id="defs6" /><sodipodi:namedview
     id="namedview4"
     pagecolor="#ffffff"
     bordercolor="#666666"
     borderopacity="1.0"
     inkscape:pageshadow="2"
     inkscape:pageopacity="0.0"
     inkscape:pagecheckerboard="0" /><g
     id="g8"
     inkscape:groupmode="layer"
     inkscape:label="ink_ext_XXXXXX"
     transform="matrix(1.3333333,0,0,-1.3333333,-0.34635466,257.76399)"><g
       id="g10"
       transform="scale(0.1)"><path
         d="M 2.59766,1933.23 H 1930.16 V 5.66797 H 2.59766 V 1933.23"
         style="fill:#ffffff;fill-opacity:1;fill-rule:evenodd;stroke:none"
         id="path12" /><path
         d="m 123.48,1562.74 h -6.414 V 626.301 H 780.91 V 1299.77 H 628.047 V 780.238 H 525.422 V 1306.18 H 372.555 V 780.238 H 276.344 V 1408.8 H 1815.69 v 153.94 H 123.48"
         style="fill:#231f20;fill-opacity:1;fill-rule:evenodd;stroke:none"
         id="path14" /><path
         d="m 1413.75,1299.77 h -6.41 V 626.301 h 249.07 V 517.266 H 123.48 v -141.11 h 1692.21 v 923.614 z m 146.45,-160.35 h 96.21 V 773.824 h -96.21 v 365.596"
         style="fill:#231f20;fill-opacity:1;fill-rule:evenodd;stroke:none"
         id="path16" /><path
         d="M 1317.54,876.445 V 1299.77 H 883.531 V 626.301 H 1311.13 V 773.824 H 1036.4 V 876.445 Z M 1036.4,1145.83 h 121.86 V 1023.97 H 1036.4 v 121.86"
         style="fill:#231f20;fill-opacity:1;fill-rule:evenodd;stroke:none"
         id="path18" /></g></g></svg>
