<?xml version="1.0" encoding="UTF-8" standalone="no"?><!DOCTYPE svg PUBLIC "-//W3C//DTD SVG 1.1//EN" "http://www.w3.org/Graphics/SVG/1.1/DTD/svg11.dtd"><svg width="100%" height="100%" viewBox="0 0 4691 3379" version="1.1" xmlns="http://www.w3.org/2000/svg" xmlns:xlink="http://www.w3.org/1999/xlink" xml:space="preserve" xmlns:serif="http://www.serif.com/" style="fill-rule:evenodd;clip-rule:evenodd;stroke-linejoin:round;stroke-miterlimit:2;"><rect id="Horizontal_Principal" x="1.547" y="2.492" width="4687.5" height="3375" style="fill:none;"/><g id="Isologo_horizontal_negro"><g id="Isotipo"><g id="Isotipo1" serif:id="Isotipo"><path d="M237.933,1320.86l0,-151.068l515.035,-297.356l515.035,297.356l0,151.068l-515.035,-297.356l-515.035,297.356Z" style="fill:#dadaf2;"/><path d="M883.797,1172.18l-130.829,-75.534l-515.035,297.356l0,594.711l130.829,75.534l0,-594.711l515.035,-297.356Z" style="fill:#f4bd40;"/><path d="M1330.78,2468.88l-0,151.068l-898.748,-518.893l-0,-594.711l130.828,-75.534l0,594.711l767.92,443.359Z" style="fill:#dadaf2;"/><path d="M1330.84,2397.4l-0.059,0.035l-704.207,-408.624l-0,-151.068l704.207,408.624l0.059,-0.035l0,151.068Z" style="fill:#f4bd40;"/><path d="M1526.19,1762.21l130.829,75.534l0,-665.565l-130.829,-75.534l0,665.565Z" style="fill:#dadaf2;"/><path d="M816.152,835.568l130.829,-75.534l515.035,297.356l-0,709.535l-130.829,75.534l0,-709.535l-515.035,-297.356Z" style="fill:#f4bd40;"/></g></g><g id="Logotipo"><path d="M2016.26,1665.02c-94.708,0 -168.252,-74.01 -168.252,-168.721c0,-94.71 73.544,-168.72 168.252,-168.72c94.71,-0 169.659,74.01 169.659,168.72c-0,35.168 -10.306,67.055 -28.106,93.774l29.043,24.826c3.75,4.216 4.688,8.9 1.875,12.648l-33.26,39.348c-2.811,3.281 -5.622,4.688 -8.432,4.688c-1.874,-0 -3.748,-0.469 -5.621,-2.344l-32.79,-30.45c-26.72,16.394 -58.137,26.231 -92.368,26.231Zm0,-254.062c-47.36,-0 -82.998,39.387 -82.998,85.341c0,45.954 35.638,85.342 82.998,85.342c9.379,0 17.819,-1.406 26.259,-4.22l-32.355,-30.01c-4.22,-4.221 -5.158,-7.972 0.469,-14.068l27.197,-30.01c3.283,-3.752 6.096,-5.627 8.91,-5.627c2.344,-0 4.689,1.406 7.033,3.282l37.983,32.355c5.626,-11.254 8.44,-23.915 8.44,-37.044c-0,-45.954 -36.106,-85.341 -83.936,-85.341Zm237.211,-78.692l67.453,0c6.09,0 9.37,3.282 9.37,9.375l-0,172.032c-0,43.593 15.946,67.968 52.998,67.968c37.051,0 53.466,-24.375 53.466,-67.968l0,-172.032c0,-6.093 2.811,-9.375 8.901,-9.375l67.453,0c6.558,0 9.369,3.282 9.369,9.375l0,188.438c0,80.136 -55.743,134.941 -139.189,134.941c-83.447,0 -139.19,-54.805 -139.19,-134.941l0,-188.438c0,-6.093 3.279,-9.375 9.369,-9.375Zm312.661,328.067c-5.624,-0 -7.967,-3.75 -6.092,-9.375l92.794,-309.317c1.874,-6.562 4.686,-9.375 11.248,-9.375l89.044,0c6.562,0 9.373,2.813 11.248,9.375l92.794,309.317c1.876,5.156 -0.468,9.375 -6.092,9.375l-70.768,-0c-6.561,-0 -11.716,-1.875 -13.591,-9.375l-12.185,-46.875l-92.325,-0l-11.717,46.875c-1.406,6.093 -5.623,9.375 -13.591,9.375l-70.767,-0Zm142.472,-237.598l-27.651,101.719l55.302,-0l-27.651,-101.719Zm436.419,237.598c-7.963,-0 -11.711,-3.75 -15.927,-9.374l-138.802,-174.343l-0,174.343c-0,6.093 -3.28,9.374 -9.37,9.374l-67.453,-0c-6.09,-0 -9.369,-3.281 -9.369,-9.374l0,-309.318c0,-6.093 3.279,-9.375 9.369,-9.375l52.464,0c7.963,0 11.242,3.751 15.458,9.375l139.272,174.343l-0,-174.343c-0,-6.093 3.279,-9.375 9.368,-9.375l67.454,0c6.09,0 9.369,3.282 9.369,9.375l0,309.318c0,6.093 -3.279,9.374 -9.369,9.374l-52.464,-0Zm120.485,-318.698c0,-6.089 3.282,-9.369 9.375,-9.369l237.129,0c6.094,0 8.907,3.28 8.907,9.369l-0,65.111c-0,6.557 -2.813,9.368 -8.907,9.368l-75.468,-0l-0,234.844c-0,6.093 -3.28,9.375 -9.37,9.375l-67.453,-0c-6.558,-0 -9.369,-3.282 -9.369,-9.375l0,-234.844l-75.469,-0c-6.093,-0 -9.375,-2.811 -9.375,-9.368l0,-65.111Zm320.619,-9.369l67.454,0c6.089,0 9.369,3.282 9.369,9.375l-0,172.032c-0,43.593 15.946,67.968 52.998,67.968c37.051,0 53.467,-24.375 53.467,-67.968l-0,-172.032c-0,-6.093 2.81,-9.375 8.9,-9.375l67.454,0c6.558,0 9.368,3.282 9.368,9.375l0,188.438c0,80.136 -55.743,134.941 -139.189,134.941c-83.447,0 -139.19,-54.805 -139.19,-134.941l0,-188.438c0,-6.093 3.279,-9.375 9.369,-9.375Zm333.756,318.693l0,-309.318c0,-6.093 3.279,-9.375 9.369,-9.375l59.022,0c5.621,0 10.305,2.345 14.521,9.375l100.81,163.564l100.807,-163.564c4.685,-6.561 8.901,-9.375 14.522,-9.375l59.022,0c6.089,0 9.369,3.282 9.369,9.375l-0,309.318c-0,6.093 -3.28,9.374 -9.369,9.374l-67.454,-0c-6.09,-0 -9.369,-3.281 -9.369,-9.374l0,-164.969l-65.644,118.572c-3.282,5.624 -6.095,8.904 -12.66,8.904l-38.449,0c-6.564,0 -9.378,-2.812 -12.66,-8.904l-65.645,-118.572l-0,164.969c-0,6.093 -3.28,9.374 -9.369,9.374l-67.454,-0c-6.09,-0 -9.369,-3.281 -9.369,-9.374Z" style="fill:#dadaf2;"/><path d="M2110.65,2044.29l-0,-208.712c-0,-3.436 1.561,-5 4.995,-5l28.411,0c2.81,0 4.995,1.251 7.181,4.688l74.08,125.602l74.083,-125.602c2.497,-3.437 4.37,-4.688 7.492,-4.688l28.098,0c3.435,0 4.996,1.564 4.996,5l-0,208.712c-0,3.437 -1.561,4.999 -4.996,4.999l-30.907,0c-3.435,0 -4.996,-1.562 -4.996,-4.999l0,-139.974l-58.14,103.731c-1.563,3.124 -3.126,4.686 -6.565,4.686l-18.129,0c-3.439,0 -4.689,-1.562 -6.565,-4.686l-57.827,-103.731l-0,139.974c-0,3.437 -1.873,4.999 -4.995,4.999l-31.221,0c-3.434,0 -4.995,-1.562 -4.995,-4.999Zm341.875,-104.044c-0,-63.455 48.713,-112.793 111.855,-112.793c63.455,0 112.481,49.338 112.481,112.793c-0,62.83 -49.026,112.168 -112.481,112.168c-63.142,0 -111.855,-49.026 -111.855,-112.168Zm111.855,-72.832c-40.636,0 -70.644,32.821 -70.644,72.832c-0,40.011 30.008,72.207 70.644,72.207c40.324,0 71.27,-32.196 71.27,-72.207c-0,-40.011 -30.321,-72.832 -71.27,-72.832Zm207.207,-31.84c0,-3.434 1.563,-4.996 5,-4.996l156.836,0c3.438,0 5,1.562 5,4.996l0,30.283c0,3.122 -1.562,4.995 -5,4.995l-57.812,-0l-0,173.437c-0,3.438 -1.561,5 -4.995,5l-31.221,0c-3.122,0 -4.995,-1.562 -4.995,-5l-0,-173.437l-57.813,-0c-3.437,-0 -5,-1.873 -5,-4.995l0,-30.283Zm261.563,104.672c-0,-63.455 48.713,-112.793 111.855,-112.793c63.455,0 112.481,49.338 112.481,112.793c-0,62.83 -49.026,112.168 -112.481,112.168c-63.142,0 -111.855,-49.026 -111.855,-112.168Zm111.855,-72.832c-40.636,0 -70.644,32.821 -70.644,72.832c-0,40.011 30.008,72.207 70.644,72.207c40.324,0 71.27,-32.196 71.27,-72.207c-0,-40.011 -30.321,-72.832 -71.27,-72.832Zm225.02,176.875l-0,-208.716c-0,-2.81 1.561,-4.995 4.995,-4.995l75.926,0c43.442,0 71.54,32.154 71.54,72.481c-0,39.077 -27.474,57.184 -42.149,62.803l49.336,78.115c2.188,3.437 1.25,5.312 -2.5,5.312l-31.224,0c-4.371,0 -6.869,-1.562 -9.054,-5l-43.453,-68.75l-32.206,0l-0,68.75c-0,3.438 -1.873,5 -4.995,5l-31.221,0c-3.434,0 -4.995,-1.562 -4.995,-5Zm71.228,-176.25l-30.017,0l-0,70.039l30.017,0c25.952,0 40.022,-15.008 40.022,-35.019c-0,-20.012 -14.07,-35.02 -40.022,-35.02Zm199.705,181.25c-3.434,0 -4.996,-2.185 -4.996,-4.995l0,-208.72c0,-2.81 1.874,-4.996 4.996,-4.996l124.965,0c3.125,0 5,2.186 5,4.996l0,30.283c0,2.809 -2.187,4.995 -5,4.995l-88.75,-0l0,49.414l77.813,-0c3.125,-0 5,1.873 5,5.307l-0,28.722c-0,3.121 -1.875,5.307 -5,5.307l-77.813,-0l0,49.414l89.063,-0c3.437,-0 5,1.873 5,4.995l-0,30.283c-0,2.81 -1.563,4.995 -5,4.995l-125.278,0Zm239.379,-22.474c-2.187,-1.873 -3.75,-4.059 -1.875,-7.181l15.926,-23.748c0.937,-1.563 2.498,-2.501 4.371,-2.501c1.249,0 2.498,0.313 3.435,1.251c13.112,10.315 32.487,18.442 48.435,18.442c21.889,0 32.833,-11.253 32.833,-25.007c0,-41.573 -101.25,-26.257 -101.25,-99.714c0,-36.553 32.47,-60.904 72.482,-60.904c22.202,0 41.881,8.429 57.803,19.044c2.81,1.873 3.435,4.371 1.874,7.18l-15.298,22.801c-0.937,1.563 -2.498,2.188 -4.059,2.188c-1.249,0 -2.498,-0.312 -3.746,-0.937c-11.245,-5.939 -25.317,-10.94 -38.451,-10.94c-15.947,0 -29.081,8.126 -29.081,21.568c-0,38.135 100.937,24.069 100.937,99.089c0,29.379 -21.854,64.968 -74.67,64.968c-27.516,0 -50.307,-10.614 -69.666,-25.599Z" style="fill:#f4bd40;"/></g></g></svg>