<?xml version="1.0" encoding="UTF-8" standalone="no"?><!DOCTYPE svg PUBLIC "-//W3C//DTD SVG 1.1//EN" "http://www.w3.org/Graphics/SVG/1.1/DTD/svg11.dtd"><svg width="100%" height="100%" viewBox="0 0 1501 1080" version="1.1" xmlns="http://www.w3.org/2000/svg" xmlns:xlink="http://www.w3.org/1999/xlink" xml:space="preserve" xmlns:serif="http://www.serif.com/" style="fill-rule:evenodd;clip-rule:evenodd;stroke-linejoin:round;stroke-miterlimit:2;"><rect id="P1h" x="0.713" y="0" width="1500" height="1080" style="fill:none;"/><g id="Isologo_horizontal_negro"><g id="Isotipo"><g id="Isotipo1" serif:id="Isotipo"><path d="M76.356,421.877l0,-48.342l164.811,-95.154l164.811,95.154l0,48.342l-164.811,-95.154l-164.811,95.154Z" style="fill:#fff;"/><path d="M283.033,374.3l-41.866,-24.171l-164.811,95.154l0,190.307l41.865,24.171l0,-190.307l164.812,-95.154Z" style="fill:#fff;"/><path d="M426.067,789.245l0,48.341l-287.599,-166.045l-0,-190.308l41.865,-24.171l-0,190.308l245.734,141.875Z" style="fill:#fff;"/><path d="M426.086,766.371l-0.019,0.011l-225.346,-130.759l-0,-48.342l225.346,130.759l0.019,-0.011l0,48.342Z" style="fill:#fff;"/><path d="M488.599,563.11l41.865,24.171l0,-212.981l-41.865,-24.171l0,212.981Z" style="fill:#fff;"/><path d="M261.386,266.585l41.865,-24.171l164.812,95.153l-0,227.052l-41.866,24.17l0,-227.051l-164.811,-95.153Z" style="fill:#fff;"/></g></g><g id="Logotipo"><path d="M645.42,532.008c-30.306,-0 -53.84,-23.684 -53.84,-53.991c-0,-30.307 23.534,-53.991 53.84,-53.991c30.308,0 54.291,23.684 54.291,53.991c0,11.254 -3.298,21.457 -8.994,30.007l9.294,7.945c1.2,1.349 1.5,2.848 0.6,4.047l-10.643,12.592c-0.9,1.05 -1.799,1.5 -2.698,1.5c-0.6,-0 -1.2,-0.15 -1.799,-0.75l-10.493,-9.745c-8.55,5.247 -18.604,8.395 -29.558,8.395Zm0,-81.3c-15.155,-0 -26.559,12.604 -26.559,27.309c0,14.705 11.404,27.309 26.559,27.309c3.002,0 5.702,-0.45 8.403,-1.35l-10.353,-9.604c-1.351,-1.35 -1.651,-2.55 0.15,-4.501l8.703,-9.603c1.05,-1.201 1.951,-1.801 2.851,-1.801c0.75,-0 1.5,0.45 2.251,1.05l12.154,10.354c1.801,-3.601 2.701,-7.653 2.701,-11.854c-0,-14.705 -11.554,-27.309 -26.86,-27.309Zm75.908,-25.182l21.585,0c1.949,0 2.998,1.05 2.998,3l0,55.05c0,13.95 5.103,21.75 16.959,21.75c11.857,0 17.11,-7.8 17.11,-21.75l-0,-55.05c-0,-1.95 0.899,-3 2.848,-3l21.585,0c2.099,0 2.998,1.05 2.998,3l0,60.3c0,25.644 -17.838,43.182 -44.541,43.182c-26.702,-0 -44.54,-17.538 -44.54,-43.182l-0,-60.3c-0,-1.95 1.049,-3 2.998,-3Zm100.051,104.982c-1.799,-0 -2.549,-1.2 -1.949,-3l29.694,-98.982c0.6,-2.1 1.5,-3 3.599,-3l28.495,0c2.099,0 2.999,0.9 3.599,3l29.694,98.982c0.6,1.65 -0.15,3 -1.95,3l-22.645,-0c-2.1,-0 -3.749,-0.6 -4.349,-3l-3.899,-15l-29.545,-0l-3.749,15c-0.45,1.95 -1.8,3 -4.349,3l-22.646,-0Zm45.591,-76.032l-8.848,32.55l17.697,0l-8.849,-32.55Zm139.655,76.032c-2.549,-0 -3.748,-1.2 -5.097,-3l-44.417,-55.79l0,55.79c0,1.95 -1.049,3 -2.998,3l-21.585,-0c-1.949,-0 -2.998,-1.05 -2.998,-3l-0,-98.982c-0,-1.949 1.049,-3 2.998,-3l16.788,0c2.549,0 3.598,1.201 4.947,3l44.567,55.79l-0,-55.79c-0,-1.949 1.049,-3 2.998,-3l21.585,0c1.949,0 2.998,1.051 2.998,3l0,98.982c0,1.95 -1.049,3 -2.998,3l-16.788,-0Zm38.555,-101.984c-0,-1.948 1.05,-2.998 3,-2.998l75.881,0c1.95,0 2.85,1.05 2.85,2.998l0,20.836c0,2.098 -0.9,2.998 -2.85,2.998l-24.15,-0l0,75.15c0,1.95 -1.049,3 -2.998,3l-21.585,-0c-2.099,-0 -2.998,-1.05 -2.998,-3l-0,-75.15l-24.15,-0c-1.95,-0 -3,-0.9 -3,-2.998l-0,-20.836Zm102.598,-2.998l21.585,0c1.949,0 2.998,1.05 2.998,3l0,55.05c0,13.95 5.103,21.75 16.959,21.75c11.857,0 17.11,-7.8 17.11,-21.75l-0,-55.05c-0,-1.95 0.899,-3 2.848,-3l21.585,0c2.099,0 2.998,1.05 2.998,3l0,60.3c0,25.644 -17.838,43.182 -44.541,43.182c-26.702,-0 -44.54,-17.538 -44.54,-43.182l-0,-60.3c-0,-1.95 1.049,-3 2.998,-3Zm106.802,101.982l-0,-98.982c-0,-1.949 1.049,-3 2.998,-3l18.887,0c1.799,0 3.298,0.751 4.647,3l32.259,52.341l32.258,-52.341c1.499,-2.099 2.848,-3 4.647,-3l18.887,0c1.949,0 2.998,1.051 2.998,3l0,98.982c0,1.95 -1.049,3 -2.998,3l-21.585,-0c-1.949,-0 -2.998,-1.05 -2.998,-3l-0,-52.79l-21.006,37.943c-1.051,1.8 -1.951,2.849 -4.051,2.849l-12.304,0c-2.101,0 -3.001,-0.9 -4.051,-2.849l-21.007,-37.943l0,52.79c0,1.95 -1.049,3 -2.998,3l-21.585,-0c-1.949,-0 -2.998,-1.05 -2.998,-3Z" style="fill:#fff;"/><path d="M675.627,653.374l-0,-66.788c-0,-1.1 0.499,-1.6 1.598,-1.6l9.092,0c0.899,0 1.598,0.4 2.297,1.5l23.706,40.193l23.707,-40.193c0.799,-1.1 1.398,-1.5 2.397,-1.5l8.992,0c1.099,0 1.598,0.5 1.598,1.6l0,66.788c0,1.1 -0.499,1.6 -1.598,1.6l-9.891,-0c-1.099,-0 -1.598,-0.5 -1.598,-1.6l-0,-44.792l-18.605,33.194c-0.5,1 -1.001,1.5 -2.101,1.5l-5.801,-0c-1.101,-0 -1.501,-0.5 -2.101,-1.5l-18.505,-33.194l0,44.792c0,1.1 -0.599,1.6 -1.598,1.6l-9.991,-0c-1.099,-0 -1.598,-0.5 -1.598,-1.6Zm109.4,-33.294c-0,-20.306 15.588,-36.094 35.793,-36.094c20.306,0 35.994,15.788 35.994,36.094c0,20.105 -15.688,35.894 -35.994,35.894c-20.205,-0 -35.793,-15.689 -35.793,-35.894Zm35.793,-23.306c-13.003,-0 -22.606,10.502 -22.606,23.306c0,12.803 9.603,23.106 22.606,23.106c12.904,0 22.807,-10.303 22.807,-23.106c-0,-12.804 -9.703,-23.306 -22.807,-23.306Zm66.307,-10.189c-0,-1.099 0.5,-1.599 1.6,-1.599l50.187,0c1.1,0 1.6,0.5 1.6,1.599l0,9.69c0,0.999 -0.5,1.599 -1.6,1.599l-18.5,-0l0,55.5c0,1.1 -0.499,1.6 -1.598,1.6l-9.991,-0c-0.999,-0 -1.598,-0.5 -1.598,-1.6l-0,-55.5l-18.5,-0c-1.1,-0 -1.6,-0.6 -1.6,-1.599l-0,-9.69Zm83.7,33.495c-0,-20.306 15.588,-36.094 35.793,-36.094c20.306,0 35.994,15.788 35.994,36.094c0,20.105 -15.688,35.894 -35.994,35.894c-20.205,-0 -35.793,-15.689 -35.793,-35.894Zm35.793,-23.306c-13.003,-0 -22.606,10.502 -22.606,23.306c0,12.803 9.603,23.106 22.606,23.106c12.904,0 22.807,-10.303 22.807,-23.106c-0,-12.804 -9.703,-23.306 -22.807,-23.306Zm72.007,56.6l-0,-66.79c-0,-0.899 0.499,-1.598 1.598,-1.598l24.296,0c13.902,0 22.893,10.289 22.893,23.194c0,12.505 -8.791,18.299 -13.487,20.097l15.787,24.997c0.7,1.1 0.4,1.7 -0.8,1.7l-9.992,-0c-1.398,-0 -2.198,-0.5 -2.897,-1.6l-13.905,-22l-10.306,-0l0,22c0,1.1 -0.599,1.6 -1.598,1.6l-9.991,-0c-1.099,-0 -1.598,-0.5 -1.598,-1.6Zm22.793,-56.4l-9.606,-0l0,22.412l9.606,0c8.304,0 12.807,-4.803 12.807,-11.206c-0,-6.404 -4.503,-11.206 -12.807,-11.206Zm63.905,58c-1.099,-0 -1.598,-0.7 -1.598,-1.599l-0,-66.79c-0,-0.899 0.599,-1.599 1.598,-1.599l39.989,0c1,0 1.6,0.7 1.6,1.599l0,9.69c0,0.899 -0.7,1.599 -1.6,1.599l-28.4,-0l0,15.812l24.9,0c1,0 1.6,0.6 1.6,1.698l0,9.191c0,0.999 -0.6,1.699 -1.6,1.699l-24.9,-0l0,15.812l28.5,0c1.1,0 1.6,0.6 1.6,1.599l0,9.69c0,0.899 -0.5,1.599 -1.6,1.599l-40.089,-0Zm76.602,-7.192c-0.7,-0.6 -1.2,-1.299 -0.6,-2.298l5.096,-7.599c0.3,-0.5 0.799,-0.801 1.399,-0.801c0.399,0 0.799,0.1 1.099,0.401c4.196,3.3 10.396,5.901 15.499,5.901c7.005,0 10.507,-3.601 10.507,-8.002c-0,-13.304 -32.4,-8.402 -32.4,-31.909c-0,-11.697 10.39,-19.489 23.194,-19.489c7.104,0 13.402,2.697 18.497,6.094c0.899,0.6 1.099,1.399 0.599,2.298l-4.895,7.296c-0.3,0.5 -0.799,0.7 -1.299,0.7c-0.399,0 -0.799,-0.1 -1.199,-0.3c-3.598,-1.9 -8.101,-3.5 -12.304,-3.5c-5.103,-0 -9.306,2.6 -9.306,6.901c0,12.204 32.3,7.702 32.3,31.709c0,9.401 -6.993,20.79 -23.894,20.79c-8.805,-0 -16.099,-3.397 -22.293,-8.192Z" style="fill:#fff;"/></g></g></svg>