<?xml version="1.0" encoding="UTF-8" standalone="no"?><!DOCTYPE svg PUBLIC "-//W3C//DTD SVG 1.1//EN" "http://www.w3.org/Graphics/SVG/1.1/DTD/svg11.dtd"><svg width="100%" height="100%" viewBox="0 0 1081 1081" version="1.1" xmlns="http://www.w3.org/2000/svg" xmlns:xlink="http://www.w3.org/1999/xlink" xml:space="preserve" xmlns:serif="http://www.serif.com/" style="fill-rule:evenodd;clip-rule:evenodd;stroke-linejoin:round;stroke-miterlimit:2;"><rect id="Favicon" x="0.53" y="0.585" width="1080" height="1080" style="fill:none;"/><g id="Isologo_vertical_negro"><g id="Isotipo"><path d="M246.54,384.811l-0,-62.399l212.733,-122.821l212.734,122.821l-0,62.399l-212.734,-122.822l-212.733,122.822Z" style="fill:#00539b;"/><path d="M513.312,323.4l-54.039,-31.199l-212.733,122.821l-0,245.644l54.038,31.199l-0,-245.644l212.734,-122.821Z" style="fill:#00539b;"/><path d="M697.937,858.998l-0,62.399l-371.226,-214.327l0,-245.644l54.039,-31.199l-0,245.643l317.187,183.128Z" style="fill:#00539b;"/><path d="M697.961,829.474l-0.024,0.014l-290.871,-168.78l-0,-62.399l290.871,168.781l0.024,-0.014l0,62.398Z" style="fill:#00539b;"/><path d="M778.651,567.11l54.039,31.199l-0,-274.909l-54.039,-31.199l0,274.909Z" style="fill:#00539b;"/><path d="M485.371,184.364l54.039,-31.199l212.733,122.821l0,293.072l-54.038,31.199l-0,-293.072l-212.734,-122.821Z" style="fill:#00539b;"/></g></g></svg>