<?xml version="1.0" encoding="UTF-8" standalone="no"?><!DOCTYPE svg PUBLIC "-//W3C//DTD SVG 1.1//EN" "http://www.w3.org/Graphics/SVG/1.1/DTD/svg11.dtd"><svg width="100%" height="100%" viewBox="0 0 3379 3379" version="1.1" xmlns="http://www.w3.org/2000/svg" xmlns:xlink="http://www.w3.org/1999/xlink" xml:space="preserve" xmlns:serif="http://www.serif.com/" style="fill-rule:evenodd;clip-rule:evenodd;stroke-linejoin:round;stroke-miterlimit:2;"><rect id="Vertical_Principal" x="0.445" y="2.492" width="3375" height="3375" style="fill:none;"/><g id="Isologo_vertical_color"><g id="Isotipo"><path d="M904.387,833.475l0,-166.826l568.759,-328.373l568.76,328.373l-0,166.826l-568.76,-328.373l-568.759,328.373Z" style="fill:#dcd9ed;"/><path d="M1617.62,669.288l-144.476,-83.413l-568.759,328.374l0,656.746l144.476,83.414l-0,-656.747l568.759,-328.374Z" style="fill:#f5bc3a;"/><path d="M2111.23,2101.25l-0,166.826l-992.499,-573.019l0,-656.747l144.476,-83.413l-0,656.747l848.023,489.606Z" style="fill:#dcd9ed;"/><path d="M2111.3,2022.32l-0.066,0.038l-777.665,-451.248l0,-166.826l777.665,451.248l0.066,-0.039l-0,166.827Z" style="fill:#f5bc3a;"/><path d="M2327.03,1320.87l144.476,83.414l0,-734.993l-144.476,-83.413l0,734.992Z" style="fill:#dcd9ed;"/><path d="M1542.92,297.565l144.476,-83.413l568.76,328.373l-0,783.548l-144.476,83.414l-0,-783.549l-568.76,-328.373Z" style="fill:#f5bc3a;"/></g><g id="Logotipo"><path d="M636.539,2778.44c-94.709,0 -168.252,-74.01 -168.252,-168.721c-0,-94.71 73.543,-168.72 168.252,-168.72c94.709,-0 169.658,74.01 169.658,168.72c0,35.168 -10.306,67.055 -28.106,93.774l29.044,24.826c3.75,4.216 4.687,8.9 1.875,12.647l-33.261,39.349c-2.811,3.281 -5.621,4.688 -8.432,4.688c-1.873,-0 -3.747,-0.469 -5.621,-2.344l-32.79,-30.45c-26.719,16.394 -58.137,26.231 -92.367,26.231Zm-0,-254.062c-47.361,-0 -82.998,39.387 -82.998,85.341c-0,45.953 35.637,85.342 82.998,85.342c9.378,0 17.818,-1.407 26.259,-4.22l-32.355,-30.011c-4.22,-4.22 -5.158,-7.971 0.469,-14.067l27.197,-30.011c3.282,-3.751 6.096,-5.627 8.909,-5.627c2.345,0 4.689,1.407 7.034,3.283l37.982,32.355c5.627,-11.254 8.44,-23.915 8.44,-37.044c0,-45.954 -36.106,-85.341 -83.935,-85.341Zm237.21,-78.692l67.454,0c6.089,0 9.369,3.281 9.369,9.375l0,172.031c0,43.594 15.946,67.969 52.998,67.969c37.052,0 53.467,-24.375 53.467,-67.969l-0,-172.031c-0,-6.094 2.811,-9.375 8.9,-9.375l67.454,0c6.558,0 9.369,3.281 9.369,9.375l-0,188.438c-0,80.136 -55.744,134.941 -139.19,134.941c-83.446,0 -139.189,-54.805 -139.189,-134.941l-0,-188.438c-0,-6.094 3.279,-9.375 9.368,-9.375Zm312.662,328.067c-5.624,-0 -7.968,-3.75 -6.093,-9.375l92.794,-309.317c1.875,-6.562 4.687,-9.375 11.248,-9.375l89.045,0c6.561,0 9.373,2.813 11.248,9.375l92.794,309.317c1.875,5.156 -0.469,9.375 -6.093,9.375l-70.767,-0c-6.561,-0 -11.717,-1.875 -13.591,-9.375l-12.185,-46.875l-92.326,-0l-11.716,46.875c-1.406,6.093 -5.624,9.375 -13.591,9.375l-70.767,-0Zm142.471,-237.598l-27.65,101.719l55.301,-0l-27.651,-101.719Zm436.419,237.598c-7.963,-0 -11.71,-3.75 -15.926,-9.374l-138.803,-174.343l0,174.343c0,6.093 -3.28,9.374 -9.369,9.374l-67.454,-0c-6.089,-0 -9.368,-3.281 -9.368,-9.374l-0,-309.318c-0,-6.093 3.279,-9.375 9.368,-9.375l52.464,0c7.963,0 11.242,3.751 15.458,9.375l139.272,174.343l0,-174.343c0,-6.093 3.279,-9.375 9.369,-9.375l67.453,0c6.09,0 9.37,3.282 9.37,9.375l-0,309.318c-0,6.093 -3.28,9.374 -9.37,9.374l-52.464,-0Zm120.486,-318.698c-0,-6.09 3.281,-9.369 9.375,-9.369l237.129,0c6.094,0 8.906,3.279 8.906,9.369l0,65.11c0,6.558 -2.812,9.369 -8.906,9.369l-75.469,-0l0,234.844c0,6.093 -3.28,9.375 -9.369,9.375l-67.454,-0c-6.558,-0 -9.368,-3.282 -9.368,-9.375l-0,-234.844l-75.469,-0c-6.094,-0 -9.375,-2.811 -9.375,-9.369l-0,-65.11Zm320.619,-9.369l67.453,0c6.09,0 9.369,3.281 9.369,9.375l0,172.031c0,43.594 15.947,67.969 52.998,67.969c37.052,0 53.467,-24.375 53.467,-67.969l0,-172.031c0,-6.094 2.811,-9.375 8.9,-9.375l67.454,0c6.558,0 9.369,3.281 9.369,9.375l-0,188.438c-0,80.136 -55.743,134.941 -139.19,134.941c-83.446,0 -139.189,-54.805 -139.189,-134.941l-0,-188.438c-0,-6.094 3.279,-9.375 9.369,-9.375Zm333.756,318.693l-0,-309.318c-0,-6.093 3.279,-9.375 9.369,-9.375l59.021,0c5.622,0 10.306,2.345 14.522,9.375l100.809,163.564l100.808,-163.564c4.684,-6.561 8.9,-9.375 14.521,-9.375l59.022,0c6.09,0 9.369,3.282 9.369,9.375l0,309.318c0,6.093 -3.279,9.374 -9.369,9.374l-67.453,-0c-6.09,-0 -9.369,-3.281 -9.369,-9.374l-0,-164.969l-65.644,118.572c-3.282,5.624 -6.096,8.904 -12.66,8.904l-38.449,0c-6.565,0 -9.378,-2.812 -12.661,-8.904l-65.645,-118.572l0,164.969c0,6.093 -3.279,9.374 -9.369,9.374l-67.453,-0c-6.09,-0 -9.369,-3.281 -9.369,-9.374Z" style="fill:#dcd9ed;"/><path d="M730.933,3157.71l0,-208.712c0,-3.437 1.561,-5 4.996,-5l28.41,0c2.81,0 4.996,1.251 7.181,4.688l74.081,125.602l74.082,-125.602c2.498,-3.437 4.371,-4.688 7.493,-4.688l28.098,0c3.434,0 4.995,1.563 4.995,5l0,208.712c0,3.437 -1.561,4.999 -4.995,4.999l-30.908,0c-3.434,0 -4.995,-1.562 -4.995,-4.999l-0,-139.974l-58.141,103.731c-1.563,3.124 -3.126,4.686 -6.564,4.686l-18.13,0c-3.438,0 -4.689,-1.562 -6.564,-4.686l-57.828,-103.731l0,139.974c0,3.437 -1.873,4.999 -4.995,4.999l-31.22,0c-3.435,0 -4.996,-1.562 -4.996,-4.999Zm341.875,-104.044c0,-63.455 48.713,-112.793 111.856,-112.793c63.455,0 112.48,49.338 112.48,112.793c0,62.83 -49.025,112.168 -112.48,112.168c-63.143,0 -111.856,-49.026 -111.856,-112.168Zm111.856,-72.832c-40.636,0 -70.645,32.821 -70.645,72.832c0,40.011 30.009,72.207 70.645,72.207c40.323,0 71.269,-32.196 71.269,-72.207c0,-40.011 -30.32,-72.832 -71.269,-72.832Zm207.207,-31.84c-0,-3.435 1.562,-4.996 5,-4.996l156.836,0c3.437,0 5,1.561 5,4.996l-0,30.283c-0,3.121 -1.563,4.995 -5,4.995l-57.813,-0l0,173.437c0,3.438 -1.561,5 -4.995,5l-31.22,0c-3.122,0 -4.996,-1.562 -4.996,-5l0,-173.437l-57.812,-0c-3.438,-0 -5,-1.874 -5,-4.995l-0,-30.283Zm261.562,104.672c0,-63.455 48.713,-112.793 111.856,-112.793c63.455,0 112.48,49.338 112.48,112.793c0,62.83 -49.025,112.168 -112.48,112.168c-63.143,0 -111.856,-49.026 -111.856,-112.168Zm111.856,-72.832c-40.636,0 -70.645,32.821 -70.645,72.832c0,40.011 30.009,72.207 70.645,72.207c40.323,0 71.269,-32.196 71.269,-72.207c0,-40.011 -30.32,-72.832 -71.269,-72.832Zm225.019,176.875l0,-208.716c0,-2.81 1.561,-4.995 4.996,-4.995l75.925,0c43.442,0 71.54,32.154 71.54,72.48c0,39.078 -27.474,57.185 -42.148,62.804l49.336,78.115c2.187,3.437 1.25,5.312 -2.5,5.312l-31.225,0c-4.371,0 -6.868,-1.562 -9.054,-5l-43.453,-68.75l-32.206,0l0,68.75c0,3.438 -1.873,5 -4.995,5l-31.22,0c-3.435,0 -4.996,-1.562 -4.996,-5Zm71.228,-176.25l-30.017,0l0,70.039l30.017,0c25.952,0 40.022,-15.008 40.022,-35.02c0,-20.011 -14.07,-35.019 -40.022,-35.019Zm199.705,181.25c-3.434,0 -4.995,-2.185 -4.995,-4.995l-0,-208.72c-0,-2.81 1.873,-4.996 4.995,-4.996l124.966,0c3.125,0 5,2.186 5,4.996l-0,30.283c-0,2.809 -2.188,4.995 -5,4.995l-88.75,-0l-0,49.414l77.812,-0c3.125,-0 5,1.873 5,5.307l0,28.721c0,3.122 -1.875,5.308 -5,5.308l-77.812,-0l-0,49.414l89.062,-0c3.438,-0 5,1.873 5,4.995l0,30.283c0,2.81 -1.562,4.995 -5,4.995l-125.278,0Zm239.38,-22.474c-2.188,-1.874 -3.75,-4.059 -1.875,-7.181l15.926,-23.748c0.937,-1.563 2.498,-2.501 4.371,-2.501c1.249,0 2.497,0.313 3.434,1.251c13.113,10.315 32.487,18.442 48.435,18.442c21.889,0 32.834,-11.253 32.834,-25.007c-0,-41.574 -101.25,-26.257 -101.25,-99.715c-0,-36.552 32.469,-60.903 72.481,-60.903c22.202,0 41.882,8.429 57.804,19.044c2.81,1.873 3.434,4.37 1.873,7.18l-15.298,22.801c-0.936,1.563 -2.497,2.188 -4.058,2.188c-1.249,0 -2.498,-0.312 -3.747,-0.937c-11.245,-5.94 -25.316,-10.94 -38.45,-10.94c-15.948,0 -29.082,8.126 -29.082,21.567c0,38.136 100.938,24.07 100.938,99.09c-0,29.378 -21.854,64.968 -74.67,64.968c-27.517,0 -50.308,-10.614 -69.666,-25.599Z" style="fill:#f4bd40;"/></g></g></svg>