<svg id="visual" viewBox="0 0 900 115" width="900" height="115" xmlns="http://www.w3.org/2000/svg" xmlns:xlink="http://www.w3.org/1999/xlink" version="1.1"><path d="M0 110L30 110.3C60 110.7 120 111.3 180 97.7C240 84 300 56 360 43.3C420 30.7 480 33.3 540 35.7C600 38 660 40 720 46.2C780 52.3 840 62.7 870 67.8L900 73L900 0L870 0C840 0 780 0 720 0C660 0 600 0 540 0C480 0 420 0 360 0C300 0 240 0 180 0C120 0 60 0 30 0L0 0Z" fill="#3A42BA50"></path><path d="M0 51L30 51.8C60 52.7 120 54.3 180 48.8C240 43.3 300 30.7 360 22.7C420 14.7 480 11.3 540 11.2C600 11 660 14 720 22.7C780 31.3 840 45.7 870 52.8L900 60L900 0L870 0C840 0 780 0 720 0C660 0 600 0 540 0C480 0 420 0 360 0C300 0 240 0 180 0C120 0 60 0 30 0L0 0Z" fill="#01086d"></path></svg>