<!-- <svg id="visual" viewBox="0 0 900 115" width="900" height="115" xmlns="http://www.w3.org/2000/svg" xmlns:xlink="http://www.w3.org/1999/xlink" version="1.1"><path d="M0 110L30 110.3C60 110.7 120 111.3 180 97.7C240 84 300 56 360 43.3C420 30.7 480 33.3 540 35.7C600 38 660 40 720 46.2C780 52.3 840 62.7 870 67.8L900 73L900 0L870 0C840 0 780 0 720 0C660 0 600 0 540 0C480 0 420 0 360 0C300 0 240 0 180 0C120 0 60 0 30 0L0 0Z" fill="#3A42BA50"></path><path d="M0 51L30 51.8C60 52.7 120 54.3 180 48.8C240 43.3 300 30.7 360 22.7C420 14.7 480 11.3 540 11.2C600 11 660 14 720 22.7C780 31.3 840 45.7 870 52.8L900 60L900 0L870 0C840 0 780 0 720 0C660 0 600 0 540 0C480 0 420 0 360 0C300 0 240 0 180 0C120 0 60 0 30 0L0 0Z" fill="#01086d"></path></svg> -->

<svg id="wave" style="transform:rotate(180deg)" viewBox="0 0 1440 200" version="1.1" xmlns="http://www.w3.org/2000/svg"><path style="transform:translate(0, -1px)" fill="#3A42BA30" d="M0,40L60,50C120,60,240,80,360,90C480,100,600,100,720,100C840,100,960,100,1080,96.7C1200,93,1320,87,1440,80C1560,73,1680,67,1800,56.7C1920,47,2040,33,2160,46.7C2280,60,2400,100,2520,120C2640,140,2760,140,2880,136.7C3000,133,3120,127,3240,116.7C3360,107,3480,93,3600,100C3720,107,3840,133,3960,143.3C4080,153,4200,147,4320,130C4440,113,4560,87,4680,70C4800,53,4920,47,5040,46.7C5160,47,5280,53,5400,63.3C5520,73,5640,87,5760,100C5880,113,6000,127,6120,126.7C6240,127,6360,113,6480,96.7C6600,80,6720,60,6840,63.3C6960,67,7080,93,7200,110C7320,127,7440,133,7560,143.3C7680,153,7800,167,7920,150C8040,133,8160,87,8280,86.7C8400,87,8520,133,8580,156.7L8640,180L8640,200L8580,200C8520,200,8400,200,8280,200C8160,200,8040,200,7920,200C7800,200,7680,200,7560,200C7440,200,7320,200,7200,200C7080,200,6960,200,6840,200C6720,200,6600,200,6480,200C6360,200,6240,200,6120,200C6000,200,5880,200,5760,200C5640,200,5520,200,5400,200C5280,200,5160,200,5040,200C4920,200,4800,200,4680,200C4560,200,4440,200,4320,200C4200,200,4080,200,3960,200C3840,200,3720,200,3600,200C3480,200,3360,200,3240,200C3120,200,3000,200,2880,200C2760,200,2640,200,2520,200C2400,200,2280,200,2160,200C2040,200,1920,200,1800,200C1680,200,1560,200,1440,200C1320,200,1200,200,1080,200C960,200,840,200,720,200C600,200,480,200,360,200C240,200,120,200,60,200L0,200Z"></path><path style="transform:translate(0, 20px);" fill="#01086d" d="M0,100L60,106.7C120,113,240,127,360,133.3C480,140,600,140,720,116.7C840,93,960,47,1080,26.7C1200,7,1320,13,1440,26.7C1560,40,1680,60,1800,60C1920,60,2040,40,2160,30C2280,20,2400,20,2520,33.3C2640,47,2760,73,2880,80C3000,87,3120,73,3240,60C3360,47,3480,33,3600,43.3C3720,53,3840,87,3960,106.7C4080,127,4200,133,4320,120C4440,107,4560,73,4680,66.7C4800,60,4920,80,5040,90C5160,100,5280,100,5400,96.7C5520,93,5640,87,5760,100C5880,113,6000,147,6120,153.3C6240,160,6360,140,6480,123.3C6600,107,6720,93,6840,103.3C6960,113,7080,147,7200,146.7C7320,147,7440,113,7560,106.7C7680,100,7800,120,7920,120C8040,120,8160,100,8280,80C8400,60,8520,40,8580,30L8640,20L8640,200L8580,200C8520,200,8400,200,8280,200C8160,200,8040,200,7920,200C7800,200,7680,200,7560,200C7440,200,7320,200,7200,200C7080,200,6960,200,6840,200C6720,200,6600,200,6480,200C6360,200,6240,200,6120,200C6000,200,5880,200,5760,200C5640,200,5520,200,5400,200C5280,200,5160,200,5040,200C4920,200,4800,200,4680,200C4560,200,4440,200,4320,200C4200,200,4080,200,3960,200C3840,200,3720,200,3600,200C3480,200,3360,200,3240,200C3120,200,3000,200,2880,200C2760,200,2640,200,2520,200C2400,200,2280,200,2160,200C2040,200,1920,200,1800,200C1680,200,1560,200,1440,200C1320,200,1200,200,1080,200C960,200,840,200,720,200C600,200,480,200,360,200C240,200,120,200,60,200L0,200Z"></path></svg>